<svg id="visual" viewBox="0 0 900 600" width="900" height="600" xmlns="http://www.w3.org/2000/svg" xmlns:xlink="http://www.w3.org/1999/xlink" version="1.1"><path d="M0 127L225 103L450 133L675 115L900 115L900 0L675 0L450 0L225 0L0 0Z" fill="#00cc8e"></path><path d="M0 181L225 145L450 169L675 175L900 163L900 113L675 113L450 131L225 101L0 125Z" fill="#00c58d"></path><path d="M0 229L225 205L450 223L675 241L900 217L900 161L675 173L450 167L225 143L0 179Z" fill="#00bf8b"></path><path d="M0 349L225 349L450 331L675 367L900 325L900 215L675 239L450 221L225 203L0 227Z" fill="#00b889"></path><path d="M0 373L225 379L450 349L675 397L900 355L900 323L675 365L450 329L225 347L0 347Z" fill="#00b187"></path><path d="M0 397L225 403L450 373L675 421L900 379L900 353L675 395L450 347L225 377L0 371Z" fill="#00aa85"></path><path d="M0 421L225 421L450 391L675 445L900 403L900 377L675 419L450 371L225 401L0 395Z" fill="#00a483"></path><path d="M0 451L225 451L450 421L675 469L900 433L900 401L675 443L450 389L225 419L0 419Z" fill="#009d80"></path><path d="M0 481L225 493L450 451L675 493L900 457L900 431L675 467L450 419L225 449L0 449Z" fill="#00977d"></path><path d="M0 505L225 523L450 481L675 511L900 481L900 455L675 491L450 449L225 491L0 479Z" fill="#00907a"></path><path d="M0 535L225 547L450 517L675 547L900 529L900 479L675 509L450 479L225 521L0 503Z" fill="#008977"></path><path d="M0 601L225 601L450 601L675 601L900 601L900 527L675 545L450 515L225 545L0 533Z" fill="#038373"></path></svg>