<svg id="visual" viewBox="0 0 900 600" width="900" height="600" xmlns="http://www.w3.org/2000/svg" xmlns:xlink="http://www.w3.org/1999/xlink" version="1.1"><g stroke-width="1" stroke-linejoin="bevel"><path d="M451 266L409 203L410 262Z" fill="#0a0a0a" stroke="#492c00"></path><path d="M451 266L495 206L409 203Z" fill="#000000" stroke="#492c00"></path><path d="M459 359L503 278L451 266Z" fill="#000000" stroke="#492c00"></path><path d="M451 266L503 278L495 206Z" fill="#191919" stroke="#492c00"></path><path d="M480 131L379 167L409 203Z" fill="#191919" stroke="#492c00"></path><path d="M409 203L304 239L410 262Z" fill="#303030" stroke="#492c00"></path><path d="M503 278L530 234L495 206Z" fill="#131313" stroke="#492c00"></path><path d="M503 278L531 254L530 234Z" fill="#1e1e1e" stroke="#492c00"></path><path d="M543 185L480 131L495 206Z" fill="#242424" stroke="#492c00"></path><path d="M495 206L480 131L409 203Z" fill="#2a2a2a" stroke="#492c00"></path><path d="M480 131L374 129L379 167Z" fill="#191919" stroke="#492c00"></path><path d="M584 194L543 185L530 234Z" fill="#131313" stroke="#492c00"></path><path d="M530 234L543 185L495 206Z" fill="#3d3d3d" stroke="#492c00"></path><path d="M317 307L343 321L410 262Z" fill="#363636" stroke="#492c00"></path><path d="M410 262L459 359L451 266Z" fill="#000000" stroke="#492c00"></path><path d="M304 239L409 203L379 167Z" fill="#2a2a2a" stroke="#492c00"></path><path d="M542 137L487 116L480 131Z" fill="#363636" stroke="#492c00"></path><path d="M480 131L465 97L374 129Z" fill="#3d3d3d" stroke="#492c00"></path><path d="M346 332L459 359L410 262Z" fill="#363636" stroke="#492c00"></path><path d="M503 278L553 322L531 254Z" fill="#0a0a0a" stroke="#492c00"></path><path d="M257 157L304 239L379 167Z" fill="#191919" stroke="#492c00"></path><path d="M340 334L346 332L343 321Z" fill="#242424" stroke="#492c00"></path><path d="M343 321L346 332L410 262Z" fill="#191919" stroke="#492c00"></path><path d="M317 307L340 334L343 321Z" fill="#1e1e1e" stroke="#492c00"></path><path d="M346 332L371 382L459 359Z" fill="#3d3d3d" stroke="#492c00"></path><path d="M304 239L317 307L410 262Z" fill="#191919" stroke="#492c00"></path><path d="M487 116L465 97L480 131Z" fill="#1e1e1e" stroke="#492c00"></path><path d="M505 92L461 92L465 97Z" fill="#1e1e1e" stroke="#492c00"></path><path d="M465 97L461 92L374 129Z" fill="#3d3d3d" stroke="#492c00"></path><path d="M543 185L542 137L480 131Z" fill="#1e1e1e" stroke="#492c00"></path><path d="M487 116L505 92L465 97Z" fill="#434343" stroke="#492c00"></path><path d="M459 359L553 322L503 278Z" fill="#242424" stroke="#492c00"></path><path d="M531 254L584 194L530 234Z" fill="#0a0a0a" stroke="#492c00"></path><path d="M543 185L598 165L542 137Z" fill="#000000" stroke="#492c00"></path><path d="M589 309L584 194L531 254Z" fill="#191919" stroke="#492c00"></path><path d="M542 137L505 92L487 116Z" fill="#131313" stroke="#492c00"></path><path d="M325 425L371 382L340 334Z" fill="#191919" stroke="#492c00"></path><path d="M340 334L371 382L346 332Z" fill="#434343" stroke="#492c00"></path><path d="M371 382L427 402L459 359Z" fill="#191919" stroke="#492c00"></path><path d="M459 359L524 381L553 322Z" fill="#191919" stroke="#492c00"></path><path d="M461 92L396 65L374 129Z" fill="#131313" stroke="#492c00"></path><path d="M248 160L246 262L304 239Z" fill="#000000" stroke="#492c00"></path><path d="M438 24L396 65L461 92Z" fill="#363636" stroke="#492c00"></path><path d="M633 323L589 309L622 390Z" fill="#363636" stroke="#492c00"></path><path d="M553 322L589 309L531 254Z" fill="#363636" stroke="#492c00"></path><path d="M439 422L524 381L459 359Z" fill="#242424" stroke="#492c00"></path><path d="M584 194L598 165L543 185Z" fill="#363636" stroke="#492c00"></path><path d="M542 137L598 55L505 92Z" fill="#000000" stroke="#492c00"></path><path d="M613 169L598 165L584 194Z" fill="#2a2a2a" stroke="#492c00"></path><path d="M257 157L379 167L374 129Z" fill="#363636" stroke="#492c00"></path><path d="M304 239L246 262L317 307Z" fill="#191919" stroke="#492c00"></path><path d="M281 398L325 425L340 334Z" fill="#303030" stroke="#492c00"></path><path d="M325 425L439 422L427 402Z" fill="#2a2a2a" stroke="#492c00"></path><path d="M427 402L439 422L459 359Z" fill="#363636" stroke="#492c00"></path><path d="M667 187L613 169L584 194Z" fill="#434343" stroke="#492c00"></path><path d="M598 165L617 158L542 137Z" fill="#3d3d3d" stroke="#492c00"></path><path d="M294 87L257 157L374 129Z" fill="#434343" stroke="#492c00"></path><path d="M667 187L617 158L613 169Z" fill="#303030" stroke="#492c00"></path><path d="M613 169L617 158L598 165Z" fill="#434343" stroke="#492c00"></path><path d="M210 85L248 160L257 157Z" fill="#191919" stroke="#492c00"></path><path d="M257 157L248 160L304 239Z" fill="#000000" stroke="#492c00"></path><path d="M396 65L294 87L374 129Z" fill="#242424" stroke="#492c00"></path><path d="M439 422L528 412L524 381Z" fill="#2a2a2a" stroke="#492c00"></path><path d="M622 390L589 309L553 322Z" fill="#000000" stroke="#492c00"></path><path d="M396 65L294 80L294 87Z" fill="#191919" stroke="#492c00"></path><path d="M294 87L210 85L257 157Z" fill="#131313" stroke="#492c00"></path><path d="M532 0L438 24L505 92Z" fill="#191919" stroke="#492c00"></path><path d="M505 92L438 24L461 92Z" fill="#363636" stroke="#492c00"></path><path d="M396 65L331 27L294 80Z" fill="#2a2a2a" stroke="#492c00"></path><path d="M622 390L553 322L524 381Z" fill="#434343" stroke="#492c00"></path><path d="M589 309L667 187L584 194Z" fill="#1e1e1e" stroke="#492c00"></path><path d="M281 398L340 334L270 392Z" fill="#242424" stroke="#492c00"></path><path d="M371 382L325 425L427 402Z" fill="#1e1e1e" stroke="#492c00"></path><path d="M270 392L340 334L317 307Z" fill="#3d3d3d" stroke="#492c00"></path><path d="M622 390L641 324L633 323Z" fill="#000000" stroke="#492c00"></path><path d="M696 217L667 187L589 309Z" fill="#2a2a2a" stroke="#492c00"></path><path d="M203 338L270 392L317 307Z" fill="#1e1e1e" stroke="#492c00"></path><path d="M281 398L301 449L325 425Z" fill="#3d3d3d" stroke="#492c00"></path><path d="M335 19L331 27L396 65Z" fill="#2a2a2a" stroke="#492c00"></path><path d="M367 0L335 19L396 65Z" fill="#3d3d3d" stroke="#492c00"></path><path d="M199 76L210 85L248 0Z" fill="#434343" stroke="#492c00"></path><path d="M696 217L589 309L633 323Z" fill="#000000" stroke="#492c00"></path><path d="M617 158L598 55L542 137Z" fill="#242424" stroke="#492c00"></path><path d="M438 24L374 0L396 65Z" fill="#000000" stroke="#492c00"></path><path d="M374 0L367 0L396 65Z" fill="#131313" stroke="#492c00"></path><path d="M608 56L598 55L617 158Z" fill="#000000" stroke="#492c00"></path><path d="M438 24L532 0L374 0Z" fill="#191919" stroke="#492c00"></path><path d="M528 412L622 390L524 381Z" fill="#2a2a2a" stroke="#492c00"></path><path d="M708 149L608 56L617 158Z" fill="#242424" stroke="#492c00"></path><path d="M553 0L532 0L505 92Z" fill="#0a0a0a" stroke="#492c00"></path><path d="M184 234L191 286L246 262Z" fill="#242424" stroke="#492c00"></path><path d="M246 262L203 338L317 307Z" fill="#191919" stroke="#492c00"></path><path d="M248 160L184 234L246 262Z" fill="#000000" stroke="#492c00"></path><path d="M131 168L184 234L248 160Z" fill="#191919" stroke="#492c00"></path><path d="M210 85L294 87L294 80Z" fill="#303030" stroke="#492c00"></path><path d="M553 0L505 92L598 55Z" fill="#2a2a2a" stroke="#492c00"></path><path d="M191 286L203 338L246 262Z" fill="#242424" stroke="#492c00"></path><path d="M227 438L301 449L281 398Z" fill="#3d3d3d" stroke="#492c00"></path><path d="M325 425L339 494L439 422Z" fill="#191919" stroke="#492c00"></path><path d="M439 422L515 483L528 412Z" fill="#191919" stroke="#492c00"></path><path d="M305 467L301 449L227 438Z" fill="#303030" stroke="#492c00"></path><path d="M597 472L629 399L622 390Z" fill="#000000" stroke="#492c00"></path><path d="M622 390L629 399L641 324Z" fill="#303030" stroke="#492c00"></path><path d="M641 324L696 217L633 323Z" fill="#242424" stroke="#492c00"></path><path d="M597 472L622 390L528 412Z" fill="#0a0a0a" stroke="#492c00"></path><path d="M622 0L553 0L598 55Z" fill="#2a2a2a" stroke="#492c00"></path><path d="M707 216L696 217L727 271Z" fill="#363636" stroke="#492c00"></path><path d="M667 187L708 149L617 158Z" fill="#242424" stroke="#492c00"></path><path d="M517 492L515 483L394 514Z" fill="#000000" stroke="#492c00"></path><path d="M294 80L331 27L248 0Z" fill="#191919" stroke="#492c00"></path><path d="M210 85L294 80L248 0Z" fill="#303030" stroke="#492c00"></path><path d="M227 438L281 398L270 392Z" fill="#000000" stroke="#492c00"></path><path d="M301 449L305 467L325 425Z" fill="#303030" stroke="#492c00"></path><path d="M146 305L190 352L203 338Z" fill="#303030" stroke="#492c00"></path><path d="M203 338L190 352L270 392Z" fill="#3d3d3d" stroke="#492c00"></path><path d="M146 305L203 338L191 286Z" fill="#000000" stroke="#492c00"></path><path d="M394 514L515 483L439 422Z" fill="#303030" stroke="#492c00"></path><path d="M515 483L597 472L528 412Z" fill="#0a0a0a" stroke="#492c00"></path><path d="M727 271L696 217L641 324Z" fill="#3d3d3d" stroke="#492c00"></path><path d="M696 217L707 216L667 187Z" fill="#131313" stroke="#492c00"></path><path d="M305 467L339 494L325 425Z" fill="#303030" stroke="#492c00"></path><path d="M248 0L331 27L335 19Z" fill="#434343" stroke="#492c00"></path><path d="M210 85L153 108L248 160Z" fill="#000000" stroke="#492c00"></path><path d="M285 506L327 494L305 467Z" fill="#131313" stroke="#492c00"></path><path d="M305 467L327 494L339 494Z" fill="#131313" stroke="#492c00"></path><path d="M395 529L394 514L339 494Z" fill="#3d3d3d" stroke="#492c00"></path><path d="M339 494L394 514L439 422Z" fill="#191919" stroke="#492c00"></path><path d="M707 216L708 149L667 187Z" fill="#303030" stroke="#492c00"></path><path d="M608 56L622 0L598 55Z" fill="#303030" stroke="#492c00"></path><path d="M586 502L597 472L515 483Z" fill="#131313" stroke="#492c00"></path><path d="M190 352L227 438L270 392Z" fill="#131313" stroke="#492c00"></path><path d="M671 414L641 324L629 399Z" fill="#303030" stroke="#492c00"></path><path d="M727 374L727 271L641 324Z" fill="#434343" stroke="#492c00"></path><path d="M744 120L741 119L708 149Z" fill="#000000" stroke="#492c00"></path><path d="M130 243L191 286L184 234Z" fill="#191919" stroke="#492c00"></path><path d="M130 243L146 305L191 286Z" fill="#000000" stroke="#492c00"></path><path d="M186 454L195 462L227 438Z" fill="#3d3d3d" stroke="#492c00"></path><path d="M367 0L248 0L335 19Z" fill="#1e1e1e" stroke="#492c00"></path><path d="M636 0L622 0L608 56Z" fill="#000000" stroke="#492c00"></path><path d="M597 472L671 414L629 399Z" fill="#3d3d3d" stroke="#492c00"></path><path d="M327 494L395 529L339 494Z" fill="#303030" stroke="#492c00"></path><path d="M394 514L491 570L517 492Z" fill="#363636" stroke="#492c00"></path><path d="M517 492L586 502L515 483Z" fill="#3d3d3d" stroke="#492c00"></path><path d="M131 168L130 243L184 234Z" fill="#303030" stroke="#492c00"></path><path d="M152 0L153 108L199 76Z" fill="#2a2a2a" stroke="#492c00"></path><path d="M199 76L153 108L210 85Z" fill="#242424" stroke="#492c00"></path><path d="M737 9L636 0L608 56Z" fill="#191919" stroke="#492c00"></path><path d="M153 108L131 168L248 160Z" fill="#242424" stroke="#492c00"></path><path d="M502 571L586 502L517 492Z" fill="#3d3d3d" stroke="#492c00"></path><path d="M597 472L613 509L671 414Z" fill="#3d3d3d" stroke="#492c00"></path><path d="M227 438L285 506L305 467Z" fill="#303030" stroke="#492c00"></path><path d="M398 600L402 600L395 529Z" fill="#1e1e1e" stroke="#492c00"></path><path d="M735 475L714 389L671 414Z" fill="#2a2a2a" stroke="#492c00"></path><path d="M671 414L714 389L641 324Z" fill="#363636" stroke="#492c00"></path><path d="M248 0L208 0L199 76Z" fill="#0a0a0a" stroke="#492c00"></path><path d="M714 389L727 374L641 324Z" fill="#131313" stroke="#492c00"></path><path d="M744 120L708 149L767 209Z" fill="#0a0a0a" stroke="#492c00"></path><path d="M708 149L741 119L608 56Z" fill="#242424" stroke="#492c00"></path><path d="M708 149L707 216L767 209Z" fill="#1e1e1e" stroke="#492c00"></path><path d="M569 600L613 509L586 502Z" fill="#434343" stroke="#492c00"></path><path d="M586 502L613 509L597 472Z" fill="#000000" stroke="#492c00"></path><path d="M780 336L763 341L797 380Z" fill="#3d3d3d" stroke="#492c00"></path><path d="M767 209L707 216L727 271Z" fill="#0a0a0a" stroke="#492c00"></path><path d="M741 119L737 9L608 56Z" fill="#000000" stroke="#492c00"></path><path d="M186 454L227 438L190 352Z" fill="#2a2a2a" stroke="#492c00"></path><path d="M227 438L195 462L285 506Z" fill="#000000" stroke="#492c00"></path><path d="M121 369L186 454L190 352Z" fill="#000000" stroke="#492c00"></path><path d="M812 233L767 209L727 271Z" fill="#131313" stroke="#492c00"></path><path d="M208 0L186 0L199 76Z" fill="#303030" stroke="#492c00"></path><path d="M76 108L80 173L131 168Z" fill="#434343" stroke="#492c00"></path><path d="M146 305L121 369L190 352Z" fill="#434343" stroke="#492c00"></path><path d="M94 349L121 369L146 305Z" fill="#0a0a0a" stroke="#492c00"></path><path d="M94 349L146 305L77 293Z" fill="#000000" stroke="#492c00"></path><path d="M395 529L491 570L394 514Z" fill="#242424" stroke="#492c00"></path><path d="M469 600L491 570L395 529Z" fill="#2a2a2a" stroke="#492c00"></path><path d="M491 570L502 571L517 492Z" fill="#3d3d3d" stroke="#492c00"></path><path d="M763 341L727 374L783 400Z" fill="#191919" stroke="#492c00"></path><path d="M727 374L763 341L727 271Z" fill="#3d3d3d" stroke="#492c00"></path><path d="M744 120L759 95L741 119Z" fill="#242424" stroke="#492c00"></path><path d="M811 139L759 95L744 120Z" fill="#000000" stroke="#492c00"></path><path d="M76 108L131 168L153 108Z" fill="#2a2a2a" stroke="#492c00"></path><path d="M131 168L80 173L130 243Z" fill="#131313" stroke="#492c00"></path><path d="M77 293L146 305L130 243Z" fill="#0a0a0a" stroke="#492c00"></path><path d="M121 369L106 466L186 454Z" fill="#000000" stroke="#492c00"></path><path d="M783 400L727 374L714 389Z" fill="#242424" stroke="#492c00"></path><path d="M763 341L780 336L727 271Z" fill="#2a2a2a" stroke="#492c00"></path><path d="M767 209L811 139L744 120Z" fill="#2a2a2a" stroke="#492c00"></path><path d="M31 229L77 293L130 243Z" fill="#242424" stroke="#492c00"></path><path d="M186 0L152 0L199 76Z" fill="#434343" stroke="#492c00"></path><path d="M398 600L327 494L258 600Z" fill="#2a2a2a" stroke="#492c00"></path><path d="M398 600L395 529L327 494Z" fill="#3d3d3d" stroke="#492c00"></path><path d="M491 570L469 600L502 571Z" fill="#1e1e1e" stroke="#492c00"></path><path d="M402 600L469 600L395 529Z" fill="#303030" stroke="#492c00"></path><path d="M502 571L569 600L586 502Z" fill="#131313" stroke="#492c00"></path><path d="M258 600L327 494L285 506Z" fill="#191919" stroke="#492c00"></path><path d="M759 95L737 9L741 119Z" fill="#191919" stroke="#492c00"></path><path d="M820 279L812 233L727 271Z" fill="#434343" stroke="#492c00"></path><path d="M749 0L736 0L737 9Z" fill="#434343" stroke="#492c00"></path><path d="M66 89L76 108L153 108Z" fill="#1e1e1e" stroke="#492c00"></path><path d="M80 173L31 229L130 243Z" fill="#191919" stroke="#492c00"></path><path d="M749 0L737 9L759 95Z" fill="#434343" stroke="#492c00"></path><path d="M737 9L736 0L636 0Z" fill="#000000" stroke="#492c00"></path><path d="M680 558L735 475L613 509Z" fill="#131313" stroke="#492c00"></path><path d="M613 509L735 475L671 414Z" fill="#191919" stroke="#492c00"></path><path d="M735 475L783 400L714 389Z" fill="#1e1e1e" stroke="#492c00"></path><path d="M780 336L820 279L727 271Z" fill="#3d3d3d" stroke="#492c00"></path><path d="M812 233L811 139L767 209Z" fill="#3d3d3d" stroke="#492c00"></path><path d="M812 348L820 279L780 336Z" fill="#1e1e1e" stroke="#492c00"></path><path d="M812 233L871 177L811 139Z" fill="#242424" stroke="#492c00"></path><path d="M843 69L749 0L759 95Z" fill="#191919" stroke="#492c00"></path><path d="M469 600L569 600L502 571Z" fill="#303030" stroke="#492c00"></path><path d="M796 437L797 380L783 400Z" fill="#131313" stroke="#492c00"></path><path d="M783 400L797 380L763 341Z" fill="#2a2a2a" stroke="#492c00"></path><path d="M71 31L66 89L153 108Z" fill="#363636" stroke="#492c00"></path><path d="M0 160L31 229L80 173Z" fill="#3d3d3d" stroke="#492c00"></path><path d="M797 380L812 348L780 336Z" fill="#1e1e1e" stroke="#492c00"></path><path d="M158 530L197 556L195 462Z" fill="#3d3d3d" stroke="#492c00"></path><path d="M195 462L197 556L285 506Z" fill="#000000" stroke="#492c00"></path><path d="M94 349L69 392L121 369Z" fill="#1e1e1e" stroke="#492c00"></path><path d="M0 363L69 392L94 349Z" fill="#000000" stroke="#492c00"></path><path d="M0 363L94 349L77 293Z" fill="#303030" stroke="#492c00"></path><path d="M158 530L195 462L186 454Z" fill="#1e1e1e" stroke="#492c00"></path><path d="M82 440L106 466L121 369Z" fill="#131313" stroke="#492c00"></path><path d="M26 133L80 173L76 108Z" fill="#434343" stroke="#492c00"></path><path d="M106 466L158 530L186 454Z" fill="#3d3d3d" stroke="#492c00"></path><path d="M218 600L258 600L197 556Z" fill="#131313" stroke="#492c00"></path><path d="M197 556L258 600L285 506Z" fill="#303030" stroke="#492c00"></path><path d="M128 578L163 600L158 530Z" fill="#000000" stroke="#492c00"></path><path d="M69 392L82 440L121 369Z" fill="#2a2a2a" stroke="#492c00"></path><path d="M630 600L680 558L613 509Z" fill="#191919" stroke="#492c00"></path><path d="M152 0L71 31L153 108Z" fill="#0a0a0a" stroke="#492c00"></path><path d="M66 89L26 133L76 108Z" fill="#191919" stroke="#492c00"></path><path d="M789 492L796 437L735 475Z" fill="#242424" stroke="#492c00"></path><path d="M735 475L796 437L783 400Z" fill="#2a2a2a" stroke="#492c00"></path><path d="M900 394L900 373L812 348Z" fill="#131313" stroke="#492c00"></path><path d="M569 600L630 600L613 509Z" fill="#131313" stroke="#492c00"></path><path d="M0 110L26 133L0 96Z" fill="#242424" stroke="#492c00"></path><path d="M630 600L645 600L680 558Z" fill="#242424" stroke="#492c00"></path><path d="M735 600L789 492L735 475Z" fill="#191919" stroke="#492c00"></path><path d="M858 239L820 279L900 274Z" fill="#191919" stroke="#492c00"></path><path d="M900 266L858 239L900 274Z" fill="#191919" stroke="#492c00"></path><path d="M820 279L858 239L812 233Z" fill="#434343" stroke="#492c00"></path><path d="M811 139L843 69L759 95Z" fill="#242424" stroke="#492c00"></path><path d="M163 600L218 600L197 556Z" fill="#191919" stroke="#492c00"></path><path d="M645 600L684 582L680 558Z" fill="#000000" stroke="#492c00"></path><path d="M0 160L0 245L31 229Z" fill="#1e1e1e" stroke="#492c00"></path><path d="M31 229L0 257L77 293Z" fill="#363636" stroke="#492c00"></path><path d="M69 392L0 426L82 440Z" fill="#434343" stroke="#492c00"></path><path d="M0 245L0 257L31 229Z" fill="#000000" stroke="#492c00"></path><path d="M0 110L0 160L26 133Z" fill="#131313" stroke="#492c00"></path><path d="M26 133L0 160L80 173Z" fill="#303030" stroke="#492c00"></path><path d="M735 600L735 475L680 558Z" fill="#303030" stroke="#492c00"></path><path d="M900 274L820 279L812 348Z" fill="#434343" stroke="#492c00"></path><path d="M900 82L843 69L811 139Z" fill="#131313" stroke="#492c00"></path><path d="M858 239L871 177L812 233Z" fill="#000000" stroke="#492c00"></path><path d="M0 96L26 133L66 89Z" fill="#303030" stroke="#492c00"></path><path d="M0 257L0 363L77 293Z" fill="#1e1e1e" stroke="#492c00"></path><path d="M128 578L158 530L106 466Z" fill="#1e1e1e" stroke="#492c00"></path><path d="M158 530L163 600L197 556Z" fill="#131313" stroke="#492c00"></path><path d="M71 31L0 96L66 89Z" fill="#434343" stroke="#492c00"></path><path d="M645 600L703 600L684 582Z" fill="#000000" stroke="#492c00"></path><path d="M684 582L735 600L680 558Z" fill="#131313" stroke="#492c00"></path><path d="M128 578L78 600L79 600Z" fill="#242424" stroke="#492c00"></path><path d="M7 504L106 466L82 440Z" fill="#191919" stroke="#492c00"></path><path d="M900 274L812 348L900 373Z" fill="#131313" stroke="#492c00"></path><path d="M858 239L900 173L871 177Z" fill="#363636" stroke="#492c00"></path><path d="M871 177L900 82L811 139Z" fill="#2a2a2a" stroke="#492c00"></path><path d="M812 348L797 380L900 394Z" fill="#242424" stroke="#492c00"></path><path d="M900 266L900 173L858 239Z" fill="#0a0a0a" stroke="#492c00"></path><path d="M0 363L0 426L69 392Z" fill="#3d3d3d" stroke="#492c00"></path><path d="M703 600L735 600L684 582Z" fill="#3d3d3d" stroke="#492c00"></path><path d="M900 394L797 380L796 437Z" fill="#363636" stroke="#492c00"></path><path d="M152 0L13 0L71 31Z" fill="#2a2a2a" stroke="#492c00"></path><path d="M71 31L13 0L0 96Z" fill="#434343" stroke="#492c00"></path><path d="M0 426L0 447L82 440Z" fill="#000000" stroke="#492c00"></path><path d="M900 394L796 437L900 462Z" fill="#242424" stroke="#492c00"></path><path d="M900 173L900 82L871 177Z" fill="#434343" stroke="#492c00"></path><path d="M843 69L866 0L749 0Z" fill="#131313" stroke="#492c00"></path><path d="M900 75L866 0L843 69Z" fill="#000000" stroke="#492c00"></path><path d="M13 0L0 0L0 96Z" fill="#303030" stroke="#492c00"></path><path d="M900 82L900 75L843 69Z" fill="#363636" stroke="#492c00"></path><path d="M900 462L796 437L789 492Z" fill="#2a2a2a" stroke="#492c00"></path><path d="M735 600L825 543L789 492Z" fill="#363636" stroke="#492c00"></path><path d="M0 447L7 504L82 440Z" fill="#434343" stroke="#492c00"></path><path d="M128 578L79 600L163 600Z" fill="#3d3d3d" stroke="#492c00"></path><path d="M78 600L128 578L106 466Z" fill="#191919" stroke="#492c00"></path><path d="M7 504L78 600L106 466Z" fill="#434343" stroke="#492c00"></path><path d="M0 447L0 507L7 504Z" fill="#191919" stroke="#492c00"></path><path d="M7 504L28 590L78 600Z" fill="#303030" stroke="#492c00"></path><path d="M873 533L900 462L789 492Z" fill="#303030" stroke="#492c00"></path><path d="M900 75L900 0L866 0Z" fill="#1e1e1e" stroke="#492c00"></path><path d="M900 571L873 533L882 600Z" fill="#2a2a2a" stroke="#492c00"></path><path d="M825 543L873 533L789 492Z" fill="#434343" stroke="#492c00"></path><path d="M0 507L28 590L7 504Z" fill="#2a2a2a" stroke="#492c00"></path><path d="M0 507L0 600L28 590Z" fill="#1e1e1e" stroke="#492c00"></path><path d="M28 590L0 600L78 600Z" fill="#0a0a0a" stroke="#492c00"></path><path d="M882 600L873 533L825 543Z" fill="#000000" stroke="#492c00"></path><path d="M873 533L900 571L900 462Z" fill="#0a0a0a" stroke="#492c00"></path><path d="M735 600L882 600L825 543Z" fill="#191919" stroke="#492c00"></path><path d="M882 600L900 600L900 571Z" fill="#2a2a2a" stroke="#492c00"></path></g></svg>